<svg width="137" height="28" viewBox="0 0 137 28" fill="none" xmlns="http://www.w3.org/2000/svg">
<path d="M5.09474 3.38599L0 1.68774L0 27.1614H5.09474V18.6702C5.09474 16.3254 6.99552 14.4246 9.34035 14.4246C11.6852 14.4246 13.586 16.3254 13.586 18.6702V27.1614H18.6807V17.8211C18.6807 12.6626 14.4988 9.32985 9.34035 9.32985C7.81158 9.32985 6.36853 9.6972 5.09474 10.3483V3.38599Z" fill="#022F28"/>
<path d="M19.6807 9.32983H24.7754V17.821C24.7754 20.1659 26.6762 22.0666 29.021 22.0666C31.3658 22.0666 33.2666 20.1659 33.2666 17.821V9.32983H38.3614V17.821C38.3614 22.9795 34.1795 27.1614 29.021 27.1614C23.8625 27.1614 19.6807 22.9795 19.6807 17.821V9.32983Z" fill="#022F28"/>
<path fill-rule="evenodd" clip-rule="evenodd" d="M44.4561 2.53687L39.3613 0.838623V17.8211C39.3613 22.9796 43.5431 27.1614 48.7017 27.1614C53.8602 27.1614 58.042 22.9796 58.042 17.8211C58.042 12.6626 53.8602 8.48073 48.7017 8.48073C47.1729 8.48073 45.7299 8.84807 44.4561 9.49922V2.53687ZM44.4561 17.8211C44.4561 20.1659 46.3569 22.0667 48.7017 22.0667C51.0465 22.0667 52.9473 20.1659 52.9473 17.8211C52.9473 15.4763 51.0465 13.5755 48.7017 13.5755C46.3569 13.5755 44.4561 15.4763 44.4561 17.8211Z" fill="#022F28"/>
<path d="M70.0806 20.3684C70.784 20.3684 71.3543 20.9387 71.3543 21.6421C71.3543 22.3455 70.784 22.9158 70.0806 22.9158H60.7402L59.042 27.1614H70.9297V27.1453C71.0699 27.156 71.2114 27.1614 71.3543 27.1614C74.4025 27.1614 76.8736 24.6903 76.8736 21.6421C76.8736 18.5939 74.4025 16.1228 71.3543 16.1228H65.835C65.1316 16.1228 64.5613 15.5525 64.5613 14.8491C64.5613 14.1457 65.1316 13.5754 65.835 13.5754H75.1753L76.8736 9.32983H64.9859V9.3459C64.8457 9.33522 64.7041 9.32983 64.5613 9.32983C61.5131 9.32983 59.042 11.8009 59.042 14.8491C59.042 17.8974 61.5131 20.3684 64.5613 20.3684H70.0806Z" fill="#022F28"/>
<path d="M82.9272 13.5755V19.0138C82.9272 20.2364 83.3654 21.0922 84.1324 21.5812C84.8993 22.043 87.0221 22.2196 88.9121 22.111V26.9943C88.0356 27.0759 87.5152 27.1166 87.1591 27.1166C86.803 27.1438 86.5154 27.1574 86.2963 27.1574C85.0911 27.1845 83.968 27.0759 82.9272 26.8313C81.9137 26.614 81.0235 26.2337 80.2566 25.6903C79.517 25.1469 78.9281 24.4134 78.4898 23.4897C78.079 22.566 77.8735 21.2688 77.8735 19.9104L77.8735 1.68774L82.9272 3.38599V9.32985H89.7613L88.063 13.5755H82.9272Z" fill="#022F28"/>
<path d="M100.225 8.48071C94.4263 8.48071 90.7612 12.7937 90.7612 17.8346C90.7612 23.091 95.0006 27.1614 100.471 27.1614C103.589 27.1614 106.515 25.7867 108.156 23.4954L104.956 20.9615C103.89 22.3363 102.112 22.9293 100.471 22.9293C97.7357 22.9293 95.9305 21.3658 95.4109 19.2094H109.332C109.415 18.7511 109.442 18.2119 109.442 17.7267C109.415 12.7398 105.613 8.48071 100.225 8.48071ZM95.5476 15.9476C96.2314 14.0068 98.0092 12.7129 100.197 12.7129C102.467 12.7129 104.382 14.1146 104.656 15.9476H95.5476Z" fill="#022F28"/>
<path d="M110.442 27.1614H115.537V17.4254C115.537 15.9694 115.944 14.3931 116.585 13.7636C117.238 13.1222 118.258 12.7263 119.699 12.7263H120.631L122.33 7.63159H119.699C116.617 7.63159 114.982 8.44534 113.188 10.08C111.374 11.7326 110.442 14.1261 110.442 17.0245V27.1614Z" fill="#022F28"/>
</svg>
