<svg width="453" height="48" viewBox="0 0 453 48" fill="none" xmlns="http://www.w3.org/2000/svg">
<rect x="0.5" y="2.5" width="305" height="39" rx="4.5" fill="white"/>
<path d="M10.0625 29.8528V14.147H25.7683V29.8528H10.0625Z" stroke="#303030" stroke-width="0.125"/>
<path d="M17.1735 26.4522C20.0423 26.4522 22.368 24.1266 22.368 21.2577C22.368 18.3889 20.0423 16.0632 17.1735 16.0632C14.3047 16.0632 11.979 18.3889 11.979 21.2577C11.979 24.1266 14.3047 26.4522 17.1735 26.4522Z" stroke="#303030" stroke-width="2" stroke-linecap="round" stroke-linejoin="round"/>
<path d="M20.8467 24.9312L23.8521 27.9365" stroke="#303030" stroke-width="2" stroke-linecap="round" stroke-linejoin="round"/>
<path d="M40.6161 27.168C41.6941 27.168 42.5481 26.888 43.2061 26.314C43.8641 25.74 44.2001 25.012 44.2001 24.144C44.2001 22.688 43.3321 21.792 41.4841 21.442L39.9861 21.148C38.9921 20.966 38.5721 20.532 38.5721 19.748C38.5721 18.908 39.2301 18.362 40.3641 18.362C41.5401 18.362 42.2121 18.936 42.3381 20.07L44.0041 19.888C43.8361 18.138 42.5061 17.032 40.3781 17.032C39.3561 17.032 38.5161 17.298 37.8861 17.844C37.2561 18.376 36.9341 19.034 36.9341 19.818C36.9341 21.316 37.8301 22.254 39.6641 22.632L40.9521 22.898C42.1141 23.136 42.5201 23.514 42.5201 24.284C42.5201 25.222 41.8061 25.838 40.6161 25.838C39.1601 25.838 38.3341 25.124 38.2781 23.78L36.6401 23.962C36.6541 24.956 37.0181 25.74 37.7321 26.314C38.4461 26.888 39.3981 27.168 40.6161 27.168ZM48.8204 25.936C47.6304 25.936 46.9724 25.25 46.8744 23.864H51.9844V23.248C51.9844 21.12 50.7524 19.79 48.7784 19.79C47.7424 19.79 46.9164 20.126 46.2864 20.812C45.6564 21.484 45.3484 22.366 45.3484 23.472C45.3484 25.838 46.5804 27.168 48.8204 27.168C50.3884 27.168 51.5084 26.37 51.8304 25.012L50.4584 24.718C50.2344 25.544 49.7024 25.936 48.8204 25.936ZM48.7644 21.008C49.7724 21.008 50.3184 21.61 50.4164 22.8H46.9024C47.0704 21.61 47.7004 21.008 48.7644 21.008ZM55.0057 27V17.2H53.4657V27H55.0057ZM59.963 25.936C58.773 25.936 58.115 25.25 58.017 23.864H63.127V23.248C63.127 21.12 61.895 19.79 59.921 19.79C58.885 19.79 58.059 20.126 57.429 20.812C56.799 21.484 56.491 22.366 56.491 23.472C56.491 25.838 57.723 27.168 59.963 27.168C61.531 27.168 62.651 26.37 62.973 25.012L61.601 24.718C61.377 25.544 60.845 25.936 59.963 25.936ZM59.907 21.008C60.915 21.008 61.461 21.61 61.559 22.8H58.045C58.213 21.61 58.843 21.008 59.907 21.008ZM67.6043 25.866C66.4283 25.866 65.7703 25.012 65.7703 23.5C65.7703 21.974 66.4143 21.078 67.5903 21.078C68.5283 21.078 69.0883 21.596 69.2703 22.604L70.7963 22.436C70.5583 20.742 69.3963 19.79 67.5903 19.79C66.5543 19.79 65.7283 20.126 65.1123 20.812C64.4963 21.484 64.1883 22.38 64.1883 23.5C64.1883 24.62 64.4963 25.516 65.0983 26.174C65.7003 26.832 66.5263 27.168 67.5763 27.168C69.3123 27.168 70.5163 26.174 70.7543 24.55L69.2703 24.368C69.1443 25.32 68.5423 25.866 67.6043 25.866ZM71.3998 21.204H72.5758V25.054C72.5758 26.342 73.2478 27 74.5918 27H75.9218V25.712H74.8858C74.3258 25.712 74.1158 25.488 74.1158 24.83V21.204H75.7538V19.958H74.1158V17.746H72.5758V19.958H71.3998V21.204ZM81.7479 27V23.99C81.7479 22.324 82.4199 21.386 83.5819 21.386H84.2119V19.958H83.6239C82.7839 19.958 82.1399 20.35 81.6919 21.134V19.958H80.2079V27H81.7479ZM88.3048 25.936C87.1148 25.936 86.4568 25.25 86.3588 23.864H91.4688V23.248C91.4688 21.12 90.2368 19.79 88.2628 19.79C87.2268 19.79 86.4008 20.126 85.7708 20.812C85.1408 21.484 84.8328 22.366 84.8328 23.472C84.8328 25.838 86.0648 27.168 88.3048 27.168C89.8728 27.168 90.9928 26.37 91.3148 25.012L89.9428 24.718C89.7188 25.544 89.1868 25.936 88.3048 25.936ZM88.2488 21.008C89.2568 21.008 89.8028 21.61 89.9008 22.8H86.3868C86.5548 21.61 87.1848 21.008 88.2488 21.008ZM95.554 27.168C97.346 27.168 98.41 26.272 98.41 24.872C98.41 23.766 97.696 23.108 96.254 22.842L95.092 22.632C94.406 22.506 94.14 22.254 94.14 21.792C94.14 21.288 94.588 20.952 95.386 20.952C96.226 20.952 96.702 21.316 96.884 22.142L98.284 21.96C98.06 20.56 97.08 19.79 95.414 19.79C94.588 19.79 93.916 19.986 93.412 20.392C92.908 20.798 92.656 21.302 92.656 21.904C92.656 22.982 93.398 23.696 94.756 23.934L95.806 24.116C96.534 24.228 96.884 24.522 96.884 24.97C96.884 25.628 96.436 25.992 95.554 25.992C94.588 25.992 94.07 25.572 93.958 24.676L92.418 24.858C92.53 26.272 93.664 27.168 95.554 27.168ZM99.0306 21.204H100.207V25.054C100.207 26.342 100.879 27 102.223 27H103.553V25.712H102.517C101.957 25.712 101.747 25.488 101.747 24.83V21.204H103.385V19.958H101.747V17.746H100.207V19.958H99.0306V21.204ZM110.866 25.726C110.516 25.726 110.362 25.586 110.362 25.194V22.324C110.362 20.77 109.34 19.79 107.562 19.79C105.868 19.79 104.72 20.7 104.51 22.002L105.966 22.17C106.134 21.372 106.638 20.994 107.492 20.994C108.346 20.994 108.85 21.47 108.85 22.1C108.85 22.38 108.71 22.548 108.43 22.59L106.456 22.926C105.098 23.15 104.328 23.92 104.328 25.096C104.328 26.314 105.28 27.168 106.778 27.168C107.73 27.168 108.5 26.79 108.962 26.076C109.088 26.678 109.648 27 110.39 27H111.174V25.726H110.866ZM105.84 24.97C105.84 24.424 106.204 24.06 106.876 23.948L108.878 23.612V23.962C108.878 25.138 108.108 25.964 107.044 25.964C106.274 25.964 105.84 25.6 105.84 24.97ZM116.803 19.958V23.892C116.803 25.166 116.243 25.852 115.193 25.852C114.297 25.852 113.793 25.278 113.793 24.256V19.958H112.253V24.508C112.253 26.132 113.219 27.168 114.801 27.168C115.697 27.168 116.411 26.832 116.859 26.174V27H118.343V19.958H116.803ZM121.793 27V23.99C121.793 22.324 122.465 21.386 123.627 21.386H124.257V19.958H123.669C122.829 19.958 122.185 20.35 121.737 21.134V19.958H120.253V27H121.793ZM131.415 25.726C131.065 25.726 130.911 25.586 130.911 25.194V22.324C130.911 20.77 129.889 19.79 128.111 19.79C126.417 19.79 125.269 20.7 125.059 22.002L126.515 22.17C126.683 21.372 127.187 20.994 128.041 20.994C128.895 20.994 129.399 21.47 129.399 22.1C129.399 22.38 129.259 22.548 128.979 22.59L127.005 22.926C125.647 23.15 124.877 23.92 124.877 25.096C124.877 26.314 125.829 27.168 127.327 27.168C128.279 27.168 129.049 26.79 129.511 26.076C129.637 26.678 130.197 27 130.939 27H131.723V25.726H131.415ZM126.389 24.97C126.389 24.424 126.753 24.06 127.425 23.948L129.427 23.612V23.962C129.427 25.138 128.657 25.964 127.593 25.964C126.823 25.964 126.389 25.6 126.389 24.97ZM139.116 22.45C139.116 20.826 138.122 19.79 136.484 19.79C135.546 19.79 134.846 20.126 134.356 20.798V19.958H132.872V27H134.412V23.066C134.412 21.778 135.014 21.092 136.092 21.092C137.044 21.092 137.576 21.68 137.576 22.702V27H139.116V22.45ZM140.142 21.204H141.318V25.054C141.318 26.342 141.99 27 143.334 27H144.664V25.712H143.628C143.068 25.712 142.858 25.488 142.858 24.83V21.204H144.496V19.958H142.858V17.746H141.318V19.958H140.142V21.204ZM146.643 28.848L151.571 16.612H150.213L145.243 28.848H146.643ZM155.2 25.866C154.024 25.866 153.366 25.012 153.366 23.5C153.366 21.974 154.01 21.078 155.186 21.078C156.124 21.078 156.684 21.596 156.866 22.604L158.392 22.436C158.154 20.742 156.992 19.79 155.186 19.79C154.15 19.79 153.324 20.126 152.708 20.812C152.092 21.484 151.784 22.38 151.784 23.5C151.784 24.62 152.092 25.516 152.694 26.174C153.296 26.832 154.122 27.168 155.172 27.168C156.908 27.168 158.112 26.174 158.35 24.55L156.866 24.368C156.74 25.32 156.138 25.866 155.2 25.866ZM164.245 19.958V23.892C164.245 25.166 163.685 25.852 162.635 25.852C161.739 25.852 161.235 25.278 161.235 24.256V19.958H159.695V24.508C159.695 26.132 160.66 27.168 162.243 27.168C163.139 27.168 163.853 26.832 164.301 26.174V27H165.785V19.958H164.245ZM169.234 18.936V17.2H167.694V18.936H169.234ZM169.234 27V19.958H167.694V27H169.234ZM173.744 27.168C175.536 27.168 176.6 26.272 176.6 24.872C176.6 23.766 175.886 23.108 174.444 22.842L173.282 22.632C172.596 22.506 172.33 22.254 172.33 21.792C172.33 21.288 172.778 20.952 173.576 20.952C174.416 20.952 174.892 21.316 175.074 22.142L176.474 21.96C176.25 20.56 175.27 19.79 173.604 19.79C172.778 19.79 172.106 19.986 171.602 20.392C171.098 20.798 170.846 21.302 170.846 21.904C170.846 22.982 171.588 23.696 172.946 23.934L173.996 24.116C174.724 24.228 175.074 24.522 175.074 24.97C175.074 25.628 174.626 25.992 173.744 25.992C172.778 25.992 172.26 25.572 172.148 24.676L170.608 24.858C170.72 26.272 171.854 27.168 173.744 27.168ZM179.597 18.936V17.2H178.057V18.936H179.597ZM179.597 27V19.958H178.057V27H179.597ZM187.747 22.45C187.747 20.826 186.753 19.79 185.115 19.79C184.177 19.79 183.477 20.126 182.987 20.798V19.958H181.503V27H183.043V23.066C183.043 21.778 183.645 21.092 184.723 21.092C185.675 21.092 186.207 21.68 186.207 22.702V27H187.747V22.45ZM192.621 25.936C191.431 25.936 190.773 25.25 190.675 23.864H195.785V23.248C195.785 21.12 194.553 19.79 192.579 19.79C191.543 19.79 190.717 20.126 190.087 20.812C189.457 21.484 189.149 22.366 189.149 23.472C189.149 25.838 190.381 27.168 192.621 27.168C194.189 27.168 195.309 26.37 195.631 25.012L194.259 24.718C194.035 25.544 193.503 25.936 192.621 25.936ZM192.565 21.008C193.573 21.008 194.119 21.61 194.217 22.8H190.703C190.871 21.61 191.501 21.008 192.565 21.008ZM199.451 21.204H200.627V25.054C200.627 26.342 201.299 27 202.643 27H203.973V25.712H202.937C202.377 25.712 202.167 25.488 202.167 24.83V21.204H203.805V19.958H202.167V17.746H200.627V19.958H199.451V21.204ZM206.96 27.546C206.736 28.106 206.414 28.316 205.812 28.316H205.028V29.59H205.798C206.484 29.59 207.03 29.45 207.408 29.156C207.8 28.876 208.136 28.358 208.416 27.616L211.314 19.958H209.788L207.912 25.068L206.078 19.958H204.44L207.156 27.042L206.96 27.546ZM216.208 19.79C215.256 19.79 214.5 20.182 213.954 20.966V19.958H212.47V29.59H214.01V26.104C214.528 26.79 215.27 27.168 216.208 27.168C217.16 27.168 217.916 26.818 218.49 26.132C219.064 25.446 219.358 24.536 219.358 23.43C219.358 22.324 219.078 21.442 218.504 20.784C217.93 20.126 217.174 19.79 216.208 19.79ZM217.776 23.486C217.776 24.942 217.062 25.866 215.928 25.866C214.752 25.866 213.982 24.886 213.982 23.486C213.982 22.03 214.738 21.092 215.928 21.092C217.062 21.092 217.776 22.03 217.776 23.486ZM223.889 25.936C222.699 25.936 222.041 25.25 221.943 23.864H227.053V23.248C227.053 21.12 225.821 19.79 223.847 19.79C222.811 19.79 221.985 20.126 221.355 20.812C220.725 21.484 220.417 22.366 220.417 23.472C220.417 25.838 221.649 27.168 223.889 27.168C225.457 27.168 226.577 26.37 226.899 25.012L225.527 24.718C225.303 25.544 224.771 25.936 223.889 25.936ZM223.833 21.008C224.841 21.008 225.387 21.61 225.485 22.8H221.971C222.139 21.61 222.769 21.008 223.833 21.008Z" fill="#6C6C6C"/>
<rect x="0.5" y="2.5" width="305" height="39" rx="4.5" stroke="#F1F1F1"/>
<g clip-path="url(#clip0_65_542)" filter="url(#filter0_d_65_542)">
<rect x="330" y="2" width="119" height="40" rx="5" fill="#E68359"/>
<rect x="330.5" y="2.5" width="118" height="39" rx="4.5" stroke="black" stroke-opacity="0.05"/>
<path d="M364.554 27.168C365.674 27.168 366.57 26.874 367.256 26.286C367.942 25.698 368.292 24.956 368.292 24.06C368.292 22.562 367.354 21.666 365.45 21.288L363.952 20.994C363.07 20.826 362.72 20.462 362.72 19.79C362.72 19.062 363.308 18.6 364.358 18.6C365.408 18.6 365.996 19.104 366.122 20.112L368.096 19.888C367.928 18.138 366.542 17.032 364.358 17.032C363.28 17.032 362.412 17.312 361.754 17.858C361.096 18.404 360.774 19.09 360.774 19.916C360.774 21.442 361.712 22.394 363.63 22.786L364.89 23.038C365.94 23.248 366.29 23.57 366.29 24.256C366.29 25.054 365.66 25.6 364.554 25.6C363.21 25.6 362.482 24.956 362.426 23.738L360.466 23.962C360.48 24.956 360.858 25.74 361.586 26.314C362.328 26.888 363.308 27.168 364.554 27.168ZM376.185 22.422C376.185 20.784 375.191 19.748 373.553 19.748C372.699 19.748 372.013 20.042 371.551 20.616V17.2H369.717V27H371.551V23.01C371.551 21.89 372.083 21.288 373.035 21.288C373.875 21.288 374.351 21.806 374.351 22.716V27H376.185V22.422ZM377.445 23.458C377.445 24.578 377.767 25.474 378.411 26.16C379.069 26.832 379.937 27.168 381.029 27.168C382.107 27.168 382.989 26.832 383.647 26.146C384.305 25.46 384.641 24.564 384.641 23.458C384.641 22.338 384.319 21.442 383.661 20.77C383.003 20.084 382.135 19.748 381.029 19.748C379.951 19.748 379.083 20.084 378.425 20.77C377.767 21.456 377.445 22.352 377.445 23.458ZM382.779 23.458C382.779 24.858 382.149 25.684 381.029 25.684C379.923 25.684 379.307 24.858 379.307 23.458C379.307 22.058 379.923 21.232 381.029 21.232C382.149 21.232 382.779 22.058 382.779 23.458ZM389.126 27L390.498 22.394L391.87 27H393.732L395.846 19.916H394.082L392.752 24.62L391.45 19.916H389.686L388.328 24.662L387.026 19.916H385.15L387.25 27H389.126ZM406.053 23.01C406.053 21.89 406.543 21.288 407.439 21.288C408.209 21.288 408.643 21.806 408.643 22.716V27H410.477V22.422C410.477 20.784 409.511 19.748 407.873 19.748C406.879 19.748 406.137 20.14 405.689 20.91C405.255 20.14 404.527 19.748 403.519 19.748C402.637 19.748 401.965 20.084 401.531 20.7V19.916H399.781V27H401.615V23.01C401.615 21.89 402.105 21.288 403.001 21.288C403.785 21.288 404.219 21.806 404.219 22.716V27H406.053V23.01ZM415.304 25.726C414.254 25.726 413.666 25.124 413.54 23.948H418.58V23.29C418.58 22.212 418.272 21.358 417.67 20.714C417.068 20.07 416.27 19.748 415.262 19.748C414.212 19.748 413.358 20.098 412.7 20.784C412.056 21.47 411.734 22.352 411.734 23.458C411.734 25.81 413.022 27.168 415.304 27.168C416.914 27.168 418.006 26.412 418.384 25.054L416.788 24.676C416.522 25.418 416.074 25.726 415.304 25.726ZM415.234 21.176C416.13 21.176 416.634 21.708 416.732 22.73H413.568C413.736 21.708 414.296 21.176 415.234 21.176Z" fill="white"/>
</g>
<defs>
<filter id="filter0_d_65_542" x="326" y="0" width="127" height="48" filterUnits="userSpaceOnUse" color-interpolation-filters="sRGB">
<feFlood flood-opacity="0" result="BackgroundImageFix"/>
<feColorMatrix in="SourceAlpha" type="matrix" values="0 0 0 0 0 0 0 0 0 0 0 0 0 0 0 0 0 0 127 0" result="hardAlpha"/>
<feOffset dy="2"/>
<feGaussianBlur stdDeviation="2"/>
<feColorMatrix type="matrix" values="0 0 0 0 0 0 0 0 0 0 0 0 0 0 0 0 0 0 0.1 0"/>
<feBlend mode="normal" in2="BackgroundImageFix" result="effect1_dropShadow_65_542"/>
<feBlend mode="normal" in="SourceGraphic" in2="effect1_dropShadow_65_542" result="shape"/>
</filter>
<clipPath id="clip0_65_542">
<rect width="119" height="40" fill="white" transform="translate(330 2)"/>
</clipPath>
</defs>
</svg>

